<svg xmlns="http://www.w3.org/2000/svg" viewBox="0 0 512 512"><path d="M502 116c-16.542 0-30-13.458-30-30 0-5.523-4.477-10-10-10H50c-5.523 0-10 4.477-10 10 0 16.542-13.458 30-30 30-5.523 0-10 4.477-10 10v260c0 5.523 4.477 10 10 10 16.542 0 30 13.458 30 30 0 5.523 4.477 10 10 10h412c5.523 0 10-4.477 10-10 0-16.542 13.458-30 30-30 5.523 0 10-4.477 10-10V126c0-5.523-4.477-10-10-10zm-10 261.005c-19.561 3.987-35.008 19.435-38.996 38.996H360v-30c0-5.523-4.477-10-10-10s-10 4.477-10 10v30H58.996C55.008 396.439 39.561 380.992 20 377.004V134.996C39.561 131.008 55.008 115.561 58.996 96H340v30c0 5.523 4.477 10 10 10s10-4.477 10-10V96h93.004c3.987 19.561 19.435 35.008 38.996 38.996v242.009z"/><path d="M318.321 250.453c-14.267-21.406-39.087-33.977-64.861-32.8l-26.388 1.373-48.575-78.298A10 10 0 00170 136h-20a9.999 9.999 0 00-9.794 12.014l15.367 74.746c-40.312 2.154-38.345 1.886-41.932 2.338l-25.566-34.997A10.001 10.001 0 0080 186H50a9.997 9.997 0 00-9.296 13.683C47.978 218.045 59.288 246.786 62.74 256c-3.452 9.214-14.762 37.955-22.037 56.317A10.001 10.001 0 0050 326h30c3.192 0 6.192-1.524 8.075-4.101l25.565-34.996c3.552.448 1.524.179 41.932 2.337l-15.367 74.746A10 10 0 00149.999 376h20c3.46 0 6.674-1.789 8.498-4.729l48.575-78.298 26.452 1.376c25.713 1.168 50.53-11.397 64.797-32.804a10.002 10.002 0 000-11.092zm-63.822 23.921l-32.29-1.68a9.987 9.987 0 00-9.017 4.714L164.436 356h-2.17l15.24-74.126a10 10 0 00-9.274-12c-53.94-3.094-47.668-1.972-56.779-3.557l-.574-.1a9.993 9.993 0 00-9.783 3.954L74.921 306H64.713c18.617-47.079 18.617-47.706 18.617-50s0-2.921-18.617-50h10.208l26.174 35.829a9.997 9.997 0 009.783 3.954l.574-.1c9.108-1.584 2.955-.47 56.779-3.557a10 10 0 009.274-12L162.265 156h2.17l48.757 78.592a9.993 9.993 0 009.017 4.714l32.226-1.676c16.409-.752 32.304 6.174 42.993 18.37-10.688 12.196-26.594 19.113-42.929 18.374zM350 156c-5.523 0-10 4.477-10 10v20c0 5.523 4.477 10 10 10s10-4.477 10-10v-20c0-5.523-4.477-10-10-10zM350 236c-5.523 0-10 4.477-10 10v20c0 5.523 4.477 10 10 10s10-4.477 10-10v-20c0-5.523-4.477-10-10-10zM350 316c-5.523 0-10 4.477-10 10v20c0 5.523 4.477 10 10 10s10-4.477 10-10v-20c0-5.523-4.477-10-10-10zM462 156h-72c-5.523 0-10 4.477-10 10s4.477 10 10 10h72c5.523 0 10-4.477 10-10s-4.477-10-10-10zM462 216h-72c-5.523 0-10 4.477-10 10s4.477 10 10 10h72c5.523 0 10-4.477 10-10s-4.477-10-10-10zM462 276h-72c-5.523 0-10 4.477-10 10s4.477 10 10 10h72c5.523 0 10-4.477 10-10s-4.477-10-10-10zM462 336h-72c-5.523 0-10 4.477-10 10s4.477 10 10 10h72c5.523 0 10-4.477 10-10s-4.477-10-10-10z"/></svg>